<?xml version="1.0" encoding="utf-8"?>
<!-- Generator: Adobe Illustrator 21.1.0, SVG Export Plug-In . SVG Version: 6.00 Build 0)  -->
<svg version="1.1" id="Layer_1" xmlns="http://www.w3.org/2000/svg" xmlns:xlink="http://www.w3.org/1999/xlink" x="0px" y="0px"
	 viewBox="0 0 1637.4 1229.5" style="enable-background:new 0 0 1637.4 1229.5;" xml:space="preserve">
<style type="text/css">
	.st0{fill:#FB2044;}
	.st1{fill:#0F0F0F;}
</style>
<g>
	<g>
		<rect x="1592.9" y="954.6" class="st0" width="44.6" height="44.6"/>
		<polygon class="st1" points="777.1,413.9 777.1,456.2 834.1,456.2 834.1,668.9 878.5,668.9 878.5,456.2 935.4,456.2 935.4,413.9 
					"/>
		<polygon class="st1" points="1269.7,626.7 1269.7,413.9 1225.2,413.9 1225.2,668.9 1342.6,668.9 1342.6,626.7 		"/>
		<polygon class="st1" points="261.2,786.4 261.2,744.1 130.3,744.1 130.3,999.1 174.8,999.1 174.8,881.1 258.1,881.1 258.1,838.9 
			174.8,838.9 174.8,786.4 		"/>
		<polygon class="st1" points="732.5,744.1 732.5,786.4 789.5,786.4 789.5,999.1 834,999.1 834,786.4 890.8,786.4 890.8,744.1 		"/>
		<path class="st1" d="M1319,892.1c14.9-4.2,27.2-12.3,36.7-24.2c10.5-13.2,15.9-29.2,15.9-47.5c0-23.5-8.5-42.6-25.3-57
			c-15.1-12.8-39.8-19.3-73.3-19.3h-47.4v255h44.5V897.7h1.4l70.8,101.5h54.5L1319,892.1z M1328,820.9c0,25-16.2,37.1-49.6,37.1
			h-8.4v-71.7h9.8C1312.3,786.4,1328,797.7,1328,820.9z"/>
		<polygon class="st1" points="1553.6,744.1 1498.8,839.7 1444.2,744.1 1393,744.1 1476.5,889.5 1476.5,999.1 1521,999.1 
			1521,889.5 1604.8,744.1 		"/>
		<path class="st1" d="M251.6,446.8c-13-11.9-27.6-20.4-43.5-25.3c-14.8-5-35-7.6-60.2-7.6h-17.6v42.2h19.8c30.8,0,54.4,7.3,70,21.7
			c17.4,16.1,26.2,37.5,26.2,63.6c0,25.8-8.9,47-26.5,63.1c-8.6,7.8-18.3,13.5-28.9,17.1c-10.7,3.4-24.5,5.1-40.9,5.1h-19.8v42.2
			h16.9c25.4,0,45.4-2.4,59.4-7.1c15.1-4.7,29.7-13.2,43.4-25.3c27.3-24.1,41.2-56.1,41.2-95.1C291.1,502.6,277.8,470.8,251.6,446.8
			z"/>
		<path class="st1" d="M591.1,808.6c8.6-7.8,18.3-13.5,28.9-17.1c10.7-3.4,24.5-5.1,40.9-5.1h19.8v-42.2h-16.9
			c-25.4,0-45.4,2.4-59.4,7.1c-15.1,4.7-29.7,13.2-43.4,25.3c-27.3,24.1-41.2,56.1-41.2,95.1c0,38.9,13.3,70.7,39.5,94.6
			c13,11.9,27.6,20.4,43.5,25.3c14.8,5,35,7.6,60.2,7.6h17.6v-42.2h-19.8c-30.8,0-54.4-7.3-70-21.7c-17.4-16.1-26.2-37.5-26.2-63.6
			C564.6,845.8,573.5,824.6,591.1,808.6z"/>
		<polygon class="st1" points="1054.6,393.4 926.3,668.9 974.4,668.9 1053.8,494.4 1129.6,668.9 1178.3,668.9 		"/>
		<polygon class="st1" points="386.3,723.6 258,999.1 306.1,999.1 385.5,824.6 461.3,999.1 510,999.1 		"/>
		<polygon class="st1" points="341.9,413.5 341.9,668.9 386.3,668.9 386.3,419 		"/>
		<polygon class="st1" points="680.6,413.5 680.6,668.9 725.1,668.9 725.1,418.9 		"/>
		<path class="st1" d="M573.4,543.5v83.1c-28-0.9-49.5-8.1-64.1-21.6c-17.4-16.1-26.2-37.5-26.2-63.6c0-25.8,8.9-47,26.5-63.1
			c8.6-7.8,18.3-13.5,28.9-17.1c10.7-3.4,24.5-5.1,40.9-5.1h19.8v-42.2h-16.9c-25.4,0-45.4,2.4-59.4,7.1
			c-15.1,4.7-29.7,13.2-43.4,25.3c-27.3,24.1-41.2,56.1-41.2,95.1c0,38.9,13.3,70.7,39.5,94.6c13,11.9,27.6,20.4,43.5,25.3
			c8.6,2.9,19.2,5.1,31.4,6.3c1.5,0.2,3,0.3,4.5,0.4l0.2,0c6.4,0.6,15.2,0.9,26.3,1c3.9,0,6.8,0,9,0c2.9,0,4.6,0,5.7-0.1v0
			c9,0,16-0.1,16-0.1l3.5,0V543.5H573.4z"/>
		<path class="st1" d="M1180.4,864.9c-0.3-16.5-3.6-32.4-9.7-47.3c-6-14.5-14.5-27.7-25.2-39.1c-10.7-11.4-23.2-20.6-37.2-27.3
			c-11.2-5.4-23.6-9.1-38-11.2l-0.2,0c-7.9-1.1-16.6-1.5-27.4-1.3c-21.2,0.5-38.2,3.8-53.4,10.4c-14.3,6.2-27.2,14.9-38.4,26
			c-11.2,11-20.2,23.9-26.7,38.2c-8.2,17.9-12,38.3-11.7,62.3c0.3,20.1,4.2,38.4,11.7,54.3c6.5,14.3,15.5,27.2,26.7,38.2
			c11.2,11.1,24.1,19.8,38.4,26c15.3,6.6,32.3,9.9,53.4,10.4c2.1,0.1,4.1,0.1,6.1,0.1c8.1,0,15-0.4,21.4-1.4l0.2,0
			c16.9-2.6,31.4-7.3,44.5-14.6c13.6-7.6,25.6-17.5,35.7-29.6c10.2-12.1,17.9-25.9,23-40.9C1178.7,902.9,1180.8,886.4,1180.4,864.9z
			 M1126.9,832.2c0.2,0.3,0.6,1.2,1.6,3.8c0.1,0.4,0.2,0.6,0.3,0.8c0.8,1.9,1.6,3.9,2.3,5.9c1.3,3.9,2.4,8,3.2,12.1
			c6.8,36.1-11.4,75.4-43.2,93.7c-0.3,0.2-0.6,0.4-0.9,0.5c-30,16.7-69.7,13.9-97-6.9c-27.3-20.8-40.5-58.4-32.3-91.7
			c8.2-33.3,37.4-60.5,71.3-66.2c35.2-6,74.4,11.9,92.2,43.2c0.8,1.4,1.5,2.8,2.3,4.2"/>
		<polygon class="st1" points="0,0 0,1229.5 1269.3,1229.5 1269.3,1083.6 1225.4,1083.6 1225.4,1185.7 43.9,1185.7 43.9,48.3 
			1225.4,196.2 1225.4,329.5 1269.3,329.5 1269.3,158.4 		"/>
	</g>
</g>
</svg>
